<?xml version="1.0" standalone="no"?>
<!DOCTYPE svg PUBLIC "-//W3C//DTD SVG 20010904//EN"
 "http://www.w3.org/TR/2001/REC-SVG-20010904/DTD/svg10.dtd">
<svg version="1.0" xmlns="http://www.w3.org/2000/svg"
 width="310.000000pt" height="310.000000pt" viewBox="0 0 310.000000 310.000000"
 preserveAspectRatio="xMidYMid meet">
<metadata>
Created by potrace 1.14, written by Peter Selinger 2001-2017
</metadata>
<g transform="translate(0.000000,310.000000) scale(0.100000,-0.100000)"
fill="#000000" stroke="none">
<path d="M0 2594 c0 -334 3 -503 10 -499 6 3 10 12 10 20 0 8 8 20 19 27 11 8
23 36 31 71 7 36 16 57 25 57 18 0 35 31 35 63 0 23 58 87 80 87 21 0 43 50
37 88 -8 47 6 108 31 141 15 20 27 25 50 23 45 -5 72 13 72 46 0 32 13 51 53
76 30 18 43 14 74 -22 10 -12 15 -8 27 23 9 20 20 34 26 30 15 -9 57 24 64 51
4 13 10 24 15 24 20 0 71 53 71 72 0 12 9 30 20 42 61 65 75 76 85 72 7 -2 18
0 26 5 8 5 -163 9 -423 9 l-438 0 0 -506z"/>
<path d="M1120 3094 c0 -16 23 -44 36 -44 16 0 94 37 94 45 0 3 -29 5 -65 5
-36 0 -65 -3 -65 -6z"/>
<path d="M1360 3090 c20 -13 117 -13 125 0 4 6 -21 10 -67 10 -51 0 -68 -3
-58 -10z"/>
<path d="M1555 3075 c23 -19 42 -24 82 -25 28 0 63 4 76 9 41 16 310 -55 363
-94 17 -13 91 -42 164 -65 74 -24 147 -51 164 -61 17 -11 41 -19 54 -19 14 0
43 -20 75 -53 29 -29 79 -70 111 -92 65 -45 100 -85 73 -85 -9 0 -30 12 -47
26 -17 15 -41 27 -52 28 -12 1 -23 7 -26 15 -3 8 0 11 7 7 6 -4 11 -3 11 2 0
13 -70 75 -77 68 -7 -7 13 -48 36 -73 23 -26 52 -93 45 -104 -6 -11 32 -59
103 -130 36 -37 44 -50 38 -68 -4 -15 -1 -29 11 -42 36 -40 -16 -15 -89 43
-27 21 -53 38 -59 38 -5 0 -23 10 -40 21 l-30 22 7 -22 c5 -16 2 -21 -11 -21
-9 0 -22 -8 -29 -17 -10 -14 -16 -15 -27 -5 -17 14 -28 6 -28 -20 0 -24 -6
-23 -42 7 -39 33 -48 24 -16 -16 l24 -32 -23 -23 c-26 -26 -30 -54 -9 -54 8 0
17 -12 20 -26 6 -23 10 -25 39 -19 18 4 34 7 37 7 22 1 30 -4 30 -20 0 -10 6
-24 13 -31 10 -10 9 -14 -5 -22 -24 -14 -23 -36 3 -44 18 -6 20 -13 16 -41 -4
-25 -2 -34 8 -34 15 0 65 -88 65 -113 0 -8 9 -25 19 -38 18 -24 18 -25 0 -47
-20 -25 -17 -41 15 -87 27 -38 28 -102 2 -121 -17 -12 -18 -15 -3 -37 22 -35
46 -122 37 -137 -4 -7 -7 -62 -6 -122 2 -80 -1 -111 -11 -119 -7 -7 -13 -18
-13 -26 0 -8 -6 -27 -14 -41 -8 -15 -20 -60 -27 -99 -7 -40 -15 -73 -19 -73
-4 0 -11 -20 -14 -45 -7 -42 -9 -45 -37 -45 -30 0 -30 -1 -28 -41 3 -34 -1
-45 -23 -64 -14 -12 -28 -33 -30 -46 -2 -16 -11 -25 -25 -27 -17 -3 -23 -10
-23 -28 0 -14 -6 -24 -14 -24 -8 0 -19 -14 -25 -31 -8 -25 -15 -30 -31 -26
-13 3 -24 -1 -29 -12 -5 -9 -26 -26 -45 -36 -23 -13 -41 -32 -51 -57 -8 -21
-19 -38 -24 -38 -5 0 -13 -9 -16 -20 -6 -20 -35 -28 -35 -10 0 6 -4 10 -10 10
-5 0 -10 -8 -10 -18 0 -24 -41 -62 -47 -44 -8 21 -39 13 -51 -14 -9 -19 -17
-24 -32 -19 -12 4 -20 2 -20 -5 0 -6 -8 -14 -17 -17 -10 -4 -26 -17 -36 -30
-20 -25 -72 -32 -80 -10 -3 6 -6 2 -6 -10 -1 -16 -7 -23 -20 -23 -10 0 -37
-18 -61 -41 -39 -38 -44 -40 -83 -34 -23 4 -43 11 -45 16 -7 19 -22 8 -41 -30
-18 -34 -25 -39 -67 -45 -34 -4 -50 -2 -56 6 -6 9 -10 10 -15 2 -15 -20 -60
-25 -78 -8 -11 11 -26 15 -49 11 -19 -3 -39 0 -45 6 -8 8 -16 5 -31 -8 -18
-16 -24 -17 -41 -7 -11 7 -37 12 -57 11 -20 -2 -48 4 -62 11 -23 13 -75 21
-125 21 -11 0 -43 11 -72 24 -28 14 -61 25 -73 25 -12 0 -35 14 -51 31 -15 17
-36 30 -46 29 -43 -5 -61 1 -66 21 -3 12 -11 19 -19 16 -18 -6 -48 11 -48 28
0 8 -6 15 -13 15 -7 0 -18 5 -24 11 -7 7 -26 13 -44 14 -18 2 -36 10 -41 18
-5 9 -15 23 -23 31 -8 8 -15 17 -15 20 0 7 -89 96 -95 96 -12 0 -50 46 -47 57
2 7 -6 13 -18 13 -15 0 -20 6 -20 24 0 19 -7 26 -31 31 -17 4 -33 14 -36 23
-14 45 -34 80 -48 86 -8 3 -20 18 -26 33 -28 68 -44 93 -62 93 -14 0 -17 5
-12 18 3 9 7 19 8 22 0 3 -9 21 -21 40 l-22 35 0 -492 0 -493 1172 0 1172 0
28 32 c19 22 25 26 18 11 -17 -36 -12 -43 28 -43 32 0 47 8 92 50 34 32 61 49
72 47 26 -7 162 116 203 183 19 32 43 60 53 62 12 3 25 24 35 55 19 57 21 88
11 156 -6 44 -5 49 15 54 14 3 21 13 21 29 0 12 4 25 9 28 4 3 11 28 14 56 8
65 26 101 27 51 0 -18 -5 -51 -11 -71 -12 -40 -4 -130 11 -130 14 0 32 77 32
133 -1 26 3 58 8 70 7 18 9 14 9 -20 1 -43 14 -57 25 -27 3 9 6 38 6 65 0 28
5 82 11 121 10 67 10 72 -15 120 -14 27 -26 55 -26 62 0 7 -11 35 -25 61 -13
27 -23 51 -21 53 9 8 64 -73 75 -110 10 -31 15 -38 22 -27 6 10 9 10 9 2 0 -7
5 -13 10 -13 13 0 13 37 0 53 -44 51 -95 133 -138 220 -42 84 -52 114 -56 171
-3 38 -8 78 -12 88 -7 24 8 23 31 -2 10 -11 26 -20 35 -20 9 0 26 -11 38 -25
13 -15 28 -22 37 -19 18 7 19 -9 3 -36 -11 -17 -8 -24 22 -55 19 -19 38 -35
42 -35 4 0 8 383 8 850 l0 850 -787 0 -788 0 30 -25z m1277 -543 c17 -17 -1
-32 -37 -32 -30 0 -55 20 -55 43 0 9 82 -1 92 -11z m107 -482 c56 -98 58 -105
36 -96 -24 9 -18 -7 21 -52 20 -23 34 -48 32 -54 -5 -13 -63 60 -79 97 -4 11
-22 52 -38 92 -28 64 -38 103 -27 103 2 0 27 -40 55 -90z m-132 -432 c-3 -7
-5 -2 -5 12 0 14 2 19 5 13 2 -7 2 -19 0 -25z"/>
<path d="M2050 2545 c0 -8 5 -15 10 -15 6 0 10 7 10 15 0 8 -4 15 -10 15 -5 0
-10 -7 -10 -15z"/>
<path d="M2090 2535 c0 -11 50 -36 61 -29 8 4 4 11 -12 20 -24 13 -49 18 -49
9z"/>
<path d="M1385 2500 c-22 -5 -74 -10 -115 -11 -71 -2 -138 -17 -177 -39 -10
-5 -52 -26 -93 -45 -41 -20 -91 -51 -110 -69 -19 -19 -52 -41 -73 -51 -52 -24
-224 -208 -253 -270 -13 -27 -24 -56 -24 -64 0 -8 -14 -37 -32 -65 -41 -66
-48 -98 -58 -234 -5 -63 -11 -120 -14 -127 -2 -7 7 -55 21 -106 14 -52 36
-134 49 -183 13 -48 24 -98 24 -111 0 -12 8 -29 18 -38 10 -9 38 -49 63 -88
69 -113 127 -169 222 -219 62 -31 83 -47 80 -59 -10 -40 82 -85 212 -101 292
-38 387 -34 449 17 16 13 35 22 43 19 18 -7 89 34 139 80 21 19 43 34 49 34
23 0 143 111 160 147 9 21 23 51 31 67 17 36 17 36 1 36 -7 0 -24 -10 -37 -22
-13 -13 -36 -30 -50 -38 -90 -50 -192 -100 -235 -115 -151 -52 -478 -47 -516
8 -4 5 -21 4 -40 -3 -32 -11 -38 -9 -99 27 -70 42 -111 80 -181 169 -57 73
-68 94 -85 158 -7 28 -22 85 -33 126 -25 93 -26 118 -2 149 16 22 17 28 5 45
-18 28 -31 156 -15 156 6 0 11 7 11 15 0 8 7 15 16 15 10 0 14 6 11 14 -3 8 1
29 9 45 10 20 12 36 6 47 -7 12 0 29 24 65 18 27 35 62 39 78 3 16 15 37 26
47 10 9 19 23 19 31 0 7 7 16 15 19 8 4 15 14 15 24 0 10 10 20 21 23 15 4 20
11 17 25 -8 31 9 50 51 57 22 4 42 13 45 21 3 8 12 14 20 14 8 0 22 8 32 17
16 17 16 18 -7 23 l-24 6 25 14 c16 9 25 9 28 2 5 -15 73 -3 95 16 17 15 17
17 -5 25 l-23 9 25 10 c14 6 34 14 45 19 47 19 165 42 228 44 55 2 72 6 92 25
14 13 25 26 25 30 0 7 -140 51 -155 49 -6 -1 -28 -5 -50 -9z m-461 -252 c-11
-39 -54 -77 -54 -49 0 10 49 71 57 71 2 0 1 -10 -3 -22z m-133 -295 c-8 -15
-10 -15 -11 -2 0 17 10 32 18 25 2 -3 -1 -13 -7 -23z m-24 -55 c-3 -8 -6 -5
-6 6 -1 11 2 17 5 13 3 -3 4 -12 1 -19z m-60 -420 c-3 -8 -6 -5 -6 6 -1 11 2
17 5 13 3 -3 4 -12 1 -19z m23 -362 c-1 -20 -2 -20 -15 4 -19 33 -19 46 0 30
8 -7 15 -22 15 -34z m98 -158 c13 -16 28 -28 33 -28 18 0 84 -59 103 -91 l18
-31 -28 15 c-27 15 -147 133 -189 187 l-20 25 29 -25 c17 -14 41 -37 54 -52z
m417 -198 c8 -13 -5 -13 -25 0 -13 8 -13 10 2 10 9 0 20 -4 23 -10z m93 -20
c12 0 22 -4 22 -10 0 -16 -54 -12 -76 6 -18 15 -18 15 6 10 14 -3 35 -6 48 -6z"/>
<path d="M2240 2441 c-7 -15 -7 -21 0 -21 12 0 25 28 17 36 -3 3 -10 -4 -17
-15z"/>
<path d="M1620 2435 c0 -21 28 -31 43 -16 9 9 8 14 -3 21 -22 14 -40 12 -40
-5z"/>
<path d="M1700 2410 c0 -22 19 -27 37 -9 8 8 17 5 32 -10 21 -21 51 -28 51
-12 0 11 -80 51 -103 51 -10 0 -17 -8 -17 -20z"/>
<path d="M603 2398 c-13 -6 -23 -17 -23 -25 0 -7 -5 -13 -12 -13 -6 0 -37 -26
-67 -59 -101 -106 -159 -182 -189 -245 -29 -63 -52 -126 -52 -146 0 -8 -9 -31
-20 -50 -62 -109 -61 -107 -64 -231 -1 -77 -6 -123 -14 -131 -16 -16 -15 -28
3 -28 8 0 15 8 15 18 1 16 1 16 11 0 5 -10 19 -18 29 -18 23 0 25 -11 7 -29
-7 -7 -12 -39 -12 -82 0 -57 -4 -72 -18 -80 -24 -14 -21 -28 9 -39 18 -7 24
-15 20 -26 -3 -9 -6 -20 -6 -25 0 -5 -9 -9 -21 -9 -16 0 -19 -4 -14 -21 14
-43 62 -114 85 -126 26 -13 64 -78 55 -93 -4 -6 3 -25 14 -43 15 -25 18 -36 9
-45 -16 -16 12 -55 65 -92 23 -16 51 -37 62 -47 33 -31 51 -42 102 -62 45 -18
53 -18 72 -5 21 15 21 15 -14 47 -19 17 -35 36 -35 43 0 6 -9 14 -20 17 -13 3
-20 14 -20 29 0 14 -11 30 -30 43 -16 11 -30 27 -30 34 0 8 -21 35 -48 60 -59
57 -85 98 -77 119 4 10 -2 22 -17 33 -19 15 -20 19 -8 34 12 14 10 17 -9 22
-15 4 -20 11 -16 23 4 12 -1 22 -12 28 -14 8 -15 13 -4 25 10 13 9 17 -5 25
-15 9 -16 12 -5 26 12 14 11 20 -9 41 -20 21 -21 25 -7 31 12 4 14 11 7 23 -6
12 -5 22 2 29 8 8 8 15 1 24 -15 19 -23 72 -13 88 5 8 3 25 -6 41 -18 36 -18
39 6 39 25 0 25 11 0 43 -24 30 -26 47 -5 47 18 0 18 5 4 31 -8 15 -6 33 7 72
9 29 19 56 22 62 6 10 7 17 10 73 1 22 7 32 18 32 13 0 15 7 10 34 -7 37 11
54 34 33 9 -9 10 -4 5 26 -6 29 -4 37 8 37 8 0 18 -6 21 -12 3 -7 3 2 0 19 -5
27 -3 32 10 27 9 -3 18 0 20 7 15 50 17 53 25 40 7 -10 10 -10 16 -1 4 6 2 17
-4 23 -16 16 -14 27 4 21 9 -4 15 0 15 10 0 9 -4 16 -10 16 -5 0 -10 5 -10 10
0 6 8 10 18 8 12 -2 18 5 20 25 4 31 16 35 31 10 8 -15 10 -11 11 20 0 30 4
37 19 37 12 0 21 9 25 25 3 13 16 34 28 45 24 22 9 26 -29 8z"/>
<path d="M2230 2400 c0 -5 5 -10 11 -10 5 0 7 5 4 10 -3 6 -8 10 -11 10 -2 0
-4 -4 -4 -10z"/>
<path d="M2332 2349 c-16 -25 -11 -33 18 -24 12 4 20 13 18 23 -5 24 -22 24
-36 1z"/>
<path d="M1395 2286 c-43 -14 -254 -121 -269 -136 -18 -18 4 -23 23 -6 11 10
27 16 36 14 15 -3 14 -6 -5 -31 -18 -22 -25 -25 -36 -16 -12 10 -23 4 -59 -31
-24 -23 -47 -40 -53 -36 -28 17 -152 -188 -152 -251 0 -14 -9 -36 -20 -50 -23
-30 -26 -92 -8 -174 6 -30 11 -74 10 -98 -1 -24 5 -56 12 -70 8 -14 28 -56 45
-92 21 -45 48 -81 83 -113 29 -26 68 -61 86 -78 18 -17 35 -28 38 -25 3 3 -4
14 -15 24 -12 9 -21 22 -21 27 0 5 -10 23 -23 40 -13 17 -34 58 -46 91 -13 33
-29 74 -36 90 -8 17 -16 44 -19 60 -2 17 -10 52 -16 80 -5 27 -8 57 -4 65 3 8
8 40 10 70 3 30 13 71 23 90 9 19 23 55 31 80 8 25 24 59 35 75 11 17 28 49
39 72 12 27 29 46 47 53 16 7 29 16 29 21 0 5 11 11 24 15 14 3 27 12 30 20 3
8 15 14 26 14 11 0 20 4 20 9 0 5 20 19 45 31 25 12 47 26 51 31 3 5 16 6 30
3 13 -3 30 -2 37 3 6 6 35 9 64 8 35 -1 54 3 57 12 7 18 36 16 36 -2 0 -17 21
-20 37 -4 8 8 13 8 18 -1 5 -8 10 -8 21 1 11 9 18 8 32 -5 11 -9 36 -16 59
-16 24 0 46 -6 53 -15 7 -9 19 -14 26 -11 8 3 18 -3 23 -12 5 -10 22 -24 38
-32 15 -8 36 -25 46 -37 10 -13 29 -23 42 -23 15 0 26 -7 30 -19 3 -11 26 -35
50 -55 24 -20 47 -46 50 -59 4 -12 30 -43 58 -68 43 -38 50 -49 40 -61 -10
-12 -8 -27 8 -74 43 -122 55 -124 51 -7 -3 73 -8 95 -28 125 -13 21 -24 44
-24 52 0 9 -9 20 -21 26 -11 7 -18 18 -15 25 3 8 1 17 -4 20 -4 3 -10 0 -12
-6 -2 -6 -15 -2 -31 11 -20 16 -26 27 -21 44 4 19 -1 26 -28 40 -98 51 -111
60 -89 66 29 7 16 22 -46 55 -77 40 -68 63 12 29 52 -21 35 -2 -35 41 -67 41
-93 43 -60 5 15 -17 17 -26 9 -29 -7 -2 -17 3 -23 11 -6 8 -30 18 -53 21 -23
4 -54 12 -70 18 l-28 10 24 18 24 18 -24 6 c-13 3 -82 8 -154 11 -95 4 -141 2
-170 -8z m165 -16 c0 -5 -7 -10 -16 -10 -8 0 -12 5 -9 10 3 6 10 10 16 10 5 0
9 -4 9 -10z m63 -7 c-7 -2 -19 -2 -25 0 -7 3 -2 5 12 5 14 0 19 -2 13 -5z m57
-3 c8 -5 12 -12 9 -15 -8 -8 -39 5 -39 16 0 11 11 11 30 -1z"/>
<path d="M1384 1986 c-121 -58 -225 -177 -264 -304 -18 -56 -20 -82 -14 -162
5 -79 12 -107 40 -167 19 -39 34 -77 34 -85 1 -20 88 -110 152 -157 70 -52
143 -81 205 -81 55 0 47 11 -20 28 -26 7 -71 26 -101 42 -52 30 -136 109 -136
129 0 5 -6 14 -12 18 -25 16 -57 89 -73 168 -24 117 -14 209 31 301 19 39 43
80 52 90 9 11 29 38 45 62 15 23 31 42 36 42 5 0 16 7 24 15 19 18 127 75 144
75 6 0 15 5 18 10 4 6 -12 10 -42 10 -35 0 -69 -10 -119 -34z"/>
<path d="M1523 1921 c-31 -15 -43 -31 -25 -31 5 0 30 11 58 24 38 19 43 25 24
24 -14 0 -40 -8 -57 -17z"/>
<path d="M1420 1865 c-7 -8 -19 -15 -26 -15 -8 0 -22 -16 -31 -35 -9 -19 -20
-35 -23 -35 -4 0 -22 -33 -40 -72 -29 -62 -34 -86 -37 -162 -1 -48 2 -109 8
-135 13 -54 59 -131 93 -156 13 -10 22 -23 20 -30 -3 -6 16 -21 41 -33 48 -23
62 -13 19 14 -34 23 -97 117 -120 179 -14 37 -18 77 -18 155 0 100 2 109 36
180 20 41 53 91 72 110 19 19 36 38 36 43 0 12 -17 8 -30 -8z"/>
<path d="M1683 1822 c-67 -27 -61 -32 35 -29 62 1 95 -2 103 -10 7 -7 20 -13
28 -13 8 0 22 -7 32 -16 10 -9 23 -13 29 -9 18 11 -48 74 -90 85 -49 14 -88
12 -137 -8z"/>
<path d="M1435 1744 c-45 -48 -75 -126 -75 -196 0 -80 54 -210 109 -264 55
-55 57 -39 3 22 -53 59 -61 80 -69 183 -7 91 23 189 76 250 23 26 28 51 10 51
-7 0 -31 -21 -54 -46z"/>
<path d="M1770 1736 c0 -2 7 -7 16 -10 8 -3 12 -2 9 4 -6 10 -25 14 -25 6z"/>
<path d="M1920 1726 c0 -9 7 -16 16 -16 17 0 14 22 -4 28 -7 2 -12 -3 -12 -12z"/>
<path d="M1562 1665 c-7 -8 -9 -15 -4 -15 5 0 15 7 22 15 16 19 -1 19 -18 0z"/>
<path d="M1966 1671 c-3 -4 4 -17 16 -27 20 -18 21 -18 15 -1 -4 10 -7 23 -7
28 0 11 -17 12 -24 0z"/>
<path d="M1575 1625 c-16 -13 -26 -24 -22 -25 5 0 16 7 24 16 9 8 25 13 35 11
16 -5 17 -3 7 9 -14 17 -8 18 -44 -11z"/>
<path d="M1740 1630 c8 -5 20 -10 25 -10 6 0 3 5 -5 10 -8 5 -19 10 -25 10 -5
0 -3 -5 5 -10z"/>
<path d="M1597 1540 c-46 -62 -49 -102 -9 -149 23 -28 35 -34 71 -35 38 -1 47
4 82 41 33 36 39 49 39 87 0 63 -41 106 -102 106 -41 0 -46 -3 -81 -50z"/>
<path d="M1920 1548 c0 -7 5 -20 10 -28 8 -12 10 -9 10 13 0 15 -4 27 -10 27
-5 0 -10 -6 -10 -12z"/>
<path d="M2930 1479 c0 -8 11 -26 25 -39 32 -30 33 -10 0 27 -17 20 -24 23
-25 12z"/>
<path d="M2257 1453 c-2 -5 -1 -19 4 -33 7 -23 7 -23 8 8 1 31 -3 40 -12 25z"/>
<path d="M1781 1411 c-1 -8 -16 -27 -33 -42 -18 -16 -28 -28 -22 -29 17 0 67
57 61 72 -4 10 -6 10 -6 -1z"/>
<path d="M730 1363 c0 -15 9 -41 20 -58 l20 -30 -6 45 c-9 55 -34 87 -34 43z"/>
<path d="M3080 1366 c0 -8 5 -18 10 -21 6 -3 10 3 10 14 0 12 -4 21 -10 21 -5
0 -10 -6 -10 -14z"/>
<path d="M2192 1248 c-6 -6 -12 -16 -12 -20 0 -4 -11 -31 -24 -58 -15 -31 -20
-52 -14 -56 13 -8 23 7 48 75 22 57 23 80 2 59z"/>
<path d="M760 1228 c0 -9 7 -19 16 -22 15 -6 15 -4 3 11 -7 10 -15 20 -16 22
-2 2 -3 -3 -3 -11z"/>
<path d="M795 1168 c13 -43 40 -81 82 -115 37 -30 44 -33 49 -19 7 18 -10 38
-58 69 -16 10 -28 26 -28 37 0 20 -25 50 -41 50 -6 0 -7 -10 -4 -22z"/>
<path d="M1488 1153 c7 -3 16 -2 19 1 4 3 -2 6 -13 5 -11 0 -14 -3 -6 -6z"/>
<path d="M2070 1070 c0 -5 5 -10 10 -10 6 0 10 5 10 10 0 6 -4 10 -10 10 -5 0
-10 -4 -10 -10z"/>
<path d="M2027 1043 c-10 -20 -29 -104 -24 -109 7 -7 56 98 50 109 -2 4 -8 7
-13 7 -5 0 -11 -3 -13 -7z"/>
<path d="M1014 916 c23 -18 36 -20 36 -6 0 6 -4 10 -9 10 -5 0 -18 3 -28 6
-16 5 -16 4 1 -10z"/>
<path d="M1107 876 c-11 -8 -14 -17 -8 -20 5 -4 15 3 21 14 13 23 11 24 -13 6z"/>
<path d="M3086 755 c-5 -11 -15 -27 -21 -35 -7 -8 -15 -31 -18 -50 -6 -44 -48
-142 -69 -164 -9 -8 -19 -29 -23 -46 -4 -16 -13 -30 -20 -30 -13 0 -25 -21
-25 -46 0 -16 -22 -45 -64 -83 -15 -14 -35 -39 -43 -56 -17 -33 -52 -75 -147
-175 l-61 -65 249 -3 c137 -1 251 -1 253 1 2 2 2 177 1 388 -2 238 -6 376 -12
364z"/>
<path d="M723 575 c-8 -23 19 -48 80 -74 28 -13 65 -29 80 -37 16 -8 34 -14
40 -14 7 0 18 -9 25 -20 7 -12 28 -22 52 -26 22 -4 40 -10 40 -15 0 -14 67
-21 89 -10 25 14 28 49 5 58 -9 3 -25 1 -36 -6 -21 -13 -42 -6 -32 11 5 8 -5
9 -33 5 -36 -6 -41 -4 -46 14 -4 15 -12 20 -29 17 -17 -2 -23 2 -23 17 0 17
-8 20 -47 23 -27 2 -48 7 -48 13 0 5 -18 16 -40 25 -22 9 -40 20 -40 25 0 15
-30 10 -37 -6z"/>
<path d="M1277 399 c-10 -6 -30 -8 -44 -4 -35 8 -63 -3 -63 -26 0 -16 7 -19
41 -19 22 0 60 5 85 11 45 12 45 12 25 30 -23 22 -21 21 -44 8z"/>
</g>
</svg>
